HIERARCHY
ROOT Hips
{
	OFFSET 0.000000 100.481300 0.000000
	CHANNELS 6 Xposition Yposition Zposition Xrotation Yrotation Zrotation
	JOINT Spine
	{
		OFFSET -0.279200 12.230698 -2.892100
		CHANNELS 3 Xrotation Yrotation Zrotation
		JOINT Spine1
		{
			OFFSET -0.325700 14.269203 -3.374200
			CHANNELS 3 Xrotation Yrotation Zrotation
			JOINT Spine2
			{
				OFFSET -0.372300 16.307602 -0.352600
				CHANNELS 3 Xrotation Yrotation Zrotation
				JOINT Neck
				{
					OFFSET -0.418800 17.814194 8.416900
					CHANNELS 3 Xrotation Yrotation Zrotation
					JOINT Head
					{
						OFFSET 0.000000 7.031097 3.806800
						CHANNELS 3 Xrotation Yrotation Zrotation
						JOINT HeadTop_End
						{
							OFFSET 0.000000 24.646606 12.978600
							CHANNELS 3 Xrotation Yrotation Zrotation
							End Site
							{
								OFFSET 0.000000 27.854965 0.000000
							}
						}
					}
				}
				JOINT LeftShoulder
				{
					OFFSET 16.952999 14.495407 -7.737500
					CHANNELS 3 Xrotation Yrotation Zrotation
					JOINT LeftArm
					{
						OFFSET 9.308998 -2.777710 0.208600
						CHANNELS 3 Xrotation Yrotation Zrotation
						JOINT LeftForeArm
						{
							OFFSET 29.972298 0.000000 0.000000
							CHANNELS 3 Xrotation Yrotation Zrotation
							JOINT LeftHand
							{
								OFFSET 26.026505 0.000000 0.000000
								CHANNELS 3 Xrotation Yrotation Zrotation
								JOINT LeftHandThumb1
								{
									OFFSET 12.240501 -7.147949 9.207150
									CHANNELS 3 Xrotation Yrotation Zrotation
									JOINT LeftHandThumb2
									{
										OFFSET 4.138618 -2.389435 2.389433
										CHANNELS 3 Xrotation Yrotation Zrotation
										JOINT LeftHandThumb3
										{
											OFFSET 2.726913 -1.574387 1.574386
											CHANNELS 3 Xrotation Yrotation Zrotation
											JOINT LeftHandThumb4
											{
												OFFSET 3.941010 -2.275345 2.275342
												CHANNELS 3 Xrotation Yrotation Zrotation
												End Site
												{
													OFFSET -0.005798 5.087799 0.009903
												}
											}
										}
									}
								}
								JOINT LeftHandIndex1
								{
									OFFSET 24.424698 -1.985611 5.953459
									CHANNELS 3 Xrotation Yrotation Zrotation
									JOINT LeftHandIndex2
									{
										OFFSET 6.426697 0.000000 0.000000
										CHANNELS 3 Xrotation Yrotation Zrotation
										JOINT LeftHandIndex3
										{
											OFFSET 5.337898 0.000000 0.000000
											CHANNELS 3 Xrotation Yrotation Zrotation
											JOINT LeftHandIndex4
											{
												OFFSET 4.409401 0.000000 0.000000
												CHANNELS 3 Xrotation Yrotation Zrotation
												End Site
												{
													OFFSET 0.000000 4.409363 0.014373
												}
											}
										}
									}
								}
								JOINT LeftHandMiddle1
								{
									OFFSET 23.810104 0.000000 0.000000
									CHANNELS 3 Xrotation Yrotation Zrotation
									JOINT LeftHandMiddle2
									{
										OFFSET 7.176498 0.000000 0.000000
										CHANNELS 3 Xrotation Yrotation Zrotation
										JOINT LeftHandMiddle3
										{
											OFFSET 6.774902 0.000000 0.000000
											CHANNELS 3 Xrotation Yrotation Zrotation
											JOINT LeftHandMiddle4
											{
												OFFSET 5.403328 0.000000 0.000000
												CHANNELS 3 Xrotation Yrotation Zrotation
												End Site
												{
													OFFSET -0.027702 5.403244 0.017414
												}
											}
										}
									}
								}
								JOINT LeftHandRing1
								{
									OFFSET 22.908401 -0.839279 -6.020567
									CHANNELS 3 Xrotation Yrotation Zrotation
									JOINT LeftHandRing2
									{
										OFFSET 6.337502 0.000000 0.000000
										CHANNELS 3 Xrotation Yrotation Zrotation
										JOINT LeftHandRing3
										{
											OFFSET 5.779297 0.000000 0.000000
											CHANNELS 3 Xrotation Yrotation Zrotation
											JOINT LeftHandRing4
											{
												OFFSET 4.965698 0.000000 0.000000
												CHANNELS 3 Xrotation Yrotation Zrotation
												End Site
												{
													OFFSET 0.000000 4.965668 0.016186
												}
											}
										}
									}
								}
								JOINT LeftHandPinky1
								{
									OFFSET 20.037003 -1.530319 -10.950146
									CHANNELS 3 Xrotation Yrotation Zrotation
									JOINT LeftHandPinky2
									{
										OFFSET 5.254700 0.000000 0.000000
										CHANNELS 3 Xrotation Yrotation Zrotation
										JOINT LeftHandPinky3
										{
											OFFSET 4.810204 0.000000 0.000000
											CHANNELS 3 Xrotation Yrotation Zrotation
											JOINT LeftHandPinky4
											{
												OFFSET 3.647202 0.000000 0.000000
												CHANNELS 3 Xrotation Yrotation Zrotation
												End Site
												{
													OFFSET 0.000000 3.647186 0.011889
												}
											}
										}
									}
								}
							}
						}
					}
				}
				JOINT RightShoulder
				{
					OFFSET -15.141001 14.495407 -7.737500
					CHANNELS 3 Xrotation Yrotation Zrotation
					JOINT RightArm
					{
						OFFSET -9.308998 -2.777710 0.208500
						CHANNELS 3 Xrotation Yrotation Zrotation
						JOINT RightForeArm
						{
							OFFSET -29.972300 0.000000 0.000000
							CHANNELS 3 Xrotation Yrotation Zrotation
							JOINT RightHand
							{
								OFFSET -26.026505 0.000000 0.000000
								CHANNELS 3 Xrotation Yrotation Zrotation
								JOINT RightHandThumb1
								{
									OFFSET -12.240601 -7.148026 9.207092
									CHANNELS 3 Xrotation Yrotation Zrotation
									JOINT RightHandThumb2
									{
										OFFSET -4.138618 -2.389435 2.389433
										CHANNELS 3 Xrotation Yrotation Zrotation
										JOINT RightHandThumb3
										{
											OFFSET -2.726974 -1.574417 1.574421
											CHANNELS 3 Xrotation Yrotation Zrotation
											JOINT RightHandThumb4
											{
												OFFSET -3.941010 -2.275345 2.275343
												CHANNELS 3 Xrotation Yrotation Zrotation
												End Site
												{
													OFFSET 0.005814 5.087799 0.009927
												}
											}
										}
									}
								}
								JOINT RightHandIndex1
								{
									OFFSET -24.424698 -1.985657 5.953444
									CHANNELS 3 Xrotation Yrotation Zrotation
									JOINT RightHandIndex2
									{
										OFFSET -6.426697 0.000000 0.000000
										CHANNELS 3 Xrotation Yrotation Zrotation
										JOINT RightHandIndex3
										{
											OFFSET -5.337898 0.000000 0.000000
											CHANNELS 3 Xrotation Yrotation Zrotation
											JOINT RightHandIndex4
											{
												OFFSET -4.409401 0.000000 0.000000
												CHANNELS 3 Xrotation Yrotation Zrotation
												End Site
												{
													OFFSET 0.000000 4.409363 0.014408
												}
											}
										}
									}
								}
								JOINT RightHandMiddle1
								{
									OFFSET -23.810097 0.000000 0.000000
									CHANNELS 3 Xrotation Yrotation Zrotation
									JOINT RightHandMiddle2
									{
										OFFSET -7.176498 0.000000 0.000000
										CHANNELS 3 Xrotation Yrotation Zrotation
										JOINT RightHandMiddle3
										{
											OFFSET -6.774902 0.000000 0.000000
											CHANNELS 3 Xrotation Yrotation Zrotation
											JOINT RightHandMiddle4
											{
												OFFSET -5.403328 0.000000 0.000000
												CHANNELS 3 Xrotation Yrotation Zrotation
												End Site
												{
													OFFSET 0.027702 5.403244 0.017457
												}
											}
										}
									}
								}
								JOINT RightHandRing1
								{
									OFFSET -22.908302 -0.839325 -6.020576
									CHANNELS 3 Xrotation Yrotation Zrotation
									JOINT RightHandRing2
									{
										OFFSET -6.337502 0.000000 0.000000
										CHANNELS 3 Xrotation Yrotation Zrotation
										JOINT RightHandRing3
										{
											OFFSET -5.779297 0.000000 0.000000
											CHANNELS 3 Xrotation Yrotation Zrotation
											JOINT RightHandRing4
											{
												OFFSET -4.965698 0.000000 0.000000
												CHANNELS 3 Xrotation Yrotation Zrotation
												End Site
												{
													OFFSET 0.000000 4.965668 0.016226
												}
											}
										}
									}
								}
								JOINT RightHandPinky1
								{
									OFFSET -20.037003 -1.530334 -10.950259
									CHANNELS 3 Xrotation Yrotation Zrotation
									JOINT RightHandPinky2
									{
										OFFSET -5.254700 0.000000 0.000000
										CHANNELS 3 Xrotation Yrotation Zrotation
										JOINT RightHandPinky3
										{
											OFFSET -4.810204 0.000000 0.000000
											CHANNELS 3 Xrotation Yrotation Zrotation
											JOINT RightHandPinky4
											{
												OFFSET -3.647202 0.000000 0.000000
												CHANNELS 3 Xrotation Yrotation Zrotation
												End Site
												{
													OFFSET 0.000000 3.647186 0.011917
												}
											}
										}
									}
								}
							}
						}
					}
				}
			}
		}
	}
	JOINT LeftUpLeg
	{
		OFFSET 15.427100 -6.655098 0.678600
		CHANNELS 3 Xrotation Yrotation Zrotation
		JOINT LeftLeg
		{
			OFFSET 4.081073 -39.591068 13.024000
			CHANNELS 3 Xrotation Yrotation Zrotation
			JOINT LeftFoot
			{
				OFFSET -4.081074 -37.707932 -15.979700
				CHANNELS 3 Xrotation Yrotation Zrotation
				JOINT LeftToeBase
				{
					OFFSET 5.346399 -15.068900 20.645000
					CHANNELS 3 Xrotation Yrotation Zrotation
					JOINT LeftToe_End
					{
						OFFSET 2.754700 0.931300 11.300900
						CHANNELS 3 Xrotation Yrotation Zrotation
						End Site
						{
							OFFSET 0.000000 11.669021 0.000000
						}
					}
				}
			}
		}
	}
	JOINT RightUpLeg
	{
		OFFSET -15.569500 -6.655098 0.678600
		CHANNELS 3 Xrotation Yrotation Zrotation
		JOINT RightLeg
		{
			OFFSET -4.081825 -39.591045 13.023800
			CHANNELS 3 Xrotation Yrotation Zrotation
			JOINT RightFoot
			{
				OFFSET 4.081824 -37.707954 -15.979600
				CHANNELS 3 Xrotation Yrotation Zrotation
				JOINT RightToeBase
				{
					OFFSET -5.346400 -15.068900 20.645000
					CHANNELS 3 Xrotation Yrotation Zrotation
					JOINT RightToe_End
					{
						OFFSET -2.754700 0.931300 11.300900
						CHANNELS 3 Xrotation Yrotation Zrotation
						End Site
						{
							OFFSET 0.000000 11.669021 0.000000
						}
					}
				}
			}
		}
	}
}
MOTION
Frames: 4
Frame Time: 0.033333
0.565112 49.295052 16.302338 0.145808 0.084727 0.843753 10.430466 0.113294 -1.467393 -0.199041 0.213356 -0.355489 -0.199367 0.248557 -0.300906 -1.001765 -1.284342 0.469464 -8.883495 -4.327064 -5.321558 0.000000 -0.000000 0.000000 0.823510 -15.262054 -7.868786 4.746141 -21.216663 -54.862207 0.000016 -62.197062 -0.000004 31.063205 4.315026 41.770660 6.610622 1.798224 20.801493 2.716392 20.172600 -24.389163 -5.537245 29.849511 5.070890 0.000000 -0.000002 0.000001 -0.236784 2.795501 -26.913367 0.396836 2.121286 -21.189291 0.083137 0.984445 -9.653138 -0.000000 -0.000000 0.000002 1.300471 7.338601 -16.511390 0.329897 1.939940 -19.300801 0.233115 1.637756 -16.201246 0.000002 0.000000 0.000003 1.797055 9.807909 -14.182017 0.205954 1.541217 -15.221669 0.265317 1.744707 -17.292063 0.000001 -0.000002 0.000001 2.026599 10.871598 -13.915299 0.168522 1.396450 -13.761323 0.107159 1.116553 -10.963897 0.000001 -0.000002 0.000001 3.171072 -4.378664 8.782955 -3.950987 37.253604 63.733957 -0.000006 55.137211 0.000007 43.537467 4.741306 -36.278673 -9.383509 -1.613359 -17.604712 3.557088 -24.337031 34.656844 -6.608392 -37.497318 -11.176199 -0.000001 0.000000 0.000001 2.957829 1.012830 13.529997 0.472464 -2.045699 26.006731 0.059749 -0.744422 9.177799 -0.000001 -0.000000 0.000003 0.105667 -3.667903 2.525190 0.584982 -2.261673 29.000334 0.020468 -0.436574 5.367132 0.000001 0.000000 -0.000003 0.456572 -7.645643 4.306359 0.107456 -0.995683 12.318525 0.072385 -0.818814 10.104476 0.000001 -0.000002 0.000001 -11.162326 -10.227915 7.169805 0.029123 -0.520530 6.403068 0.028644 -0.516310 6.351264 -0.000002 0.000000 -0.000002 -86.312663 -11.433421 18.500346 79.646208 -0.699241 -3.143813 9.214466 -6.278955 -9.760615 -0.103128 0.000008 0.000003 -0.000000 0.000000 -0.000000 -88.057285 12.723257 -14.133925 80.264073 0.660747 1.249735 10.522598 -0.515674 10.736242 -0.191620 -0.000002 0.000001 0.000000 -0.000001 -0.000000 
0.595749 49.245323 16.079159 -3.096584 0.011761 1.231240 9.925854 0.199310 -1.475790 1.872552 0.290220 -0.665542 1.872073 0.315151 -0.619447 -1.149683 -1.156045 0.562033 -8.276509 -3.687696 -4.977520 0.000000 0.000000 -0.000000 1.037482 -13.878510 -6.734354 0.167264 -25.306997 -55.317613 0.000004 -56.378779 -0.000008 29.196436 2.060386 41.334027 6.610621 1.798237 20.801498 2.716393 20.172580 -24.389159 -5.537238 29.849518 5.070889 -0.000002 -0.000003 -0.000000 -0.236784 2.795501 -26.913362 0.396825 2.121282 -21.189306 0.083132 0.984452 -9.653130 -0.000000 0.000000 -0.000001 1.300470 7.338636 -16.511390 0.329905 1.939950 -19.300783 0.233124 1.637772 -16.201251 -0.000002 -0.000002 0.000003 1.797053 9.807908 -14.182015 0.205947 1.541189 -15.221664 0.265322 1.744715 -17.292068 0.000004 0.000001 -0.000001 2.073764 11.052474 -13.916399 0.169777 1.401569 -13.812931 0.107155 1.116554 -10.963906 0.000001 -0.000002 0.000002 2.896327 -4.304163 7.387944 -9.641443 40.391813 66.585752 -0.000010 48.303405 0.000001 40.521555 6.146484 -37.373320 -9.383509 -1.613370 -17.604719 3.557081 -24.336982 34.656841 -6.608401 -37.497308 -11.176191 -0.000002 -0.000002 0.000001 2.957823 1.012861 13.530002 0.472456 -2.045691 26.006738 0.059750 -0.744415 9.177799 -0.000001 -0.000000 0.000002 0.105669 -3.667885 2.525196 0.584992 -2.261693 29.000324 0.020464 -0.436564 5.367142 -0.000000 -0.000001 0.000000 0.466605 -7.653519 4.413515 0.104103 -0.980228 12.124276 0.072393 -0.818800 10.104479 0.000001 -0.000000 -0.000000 -11.162323 -10.227909 7.169814 0.029120 -0.520504 6.403067 0.028659 -0.516320 6.351250 0.000001 -0.000001 -0.000001 -83.357773 -10.376736 17.537557 80.726921 -2.357231 -2.789378 8.509429 -5.400258 -9.515064 -0.589327 0.000014 -0.047260 -0.000000 0.000001 0.000000 -85.097668 12.430244 -14.625964 80.455797 1.267509 1.195647 10.438809 -0.566730 10.158490 -0.191612 0.000005 -0.000002 0.000000 0.000001 -0.000000 
0.605786 49.221909 15.742612 -6.673696 -0.140068 1.489949 9.506990 0.276278 -1.430477 4.499289 0.373138 -0.934893 4.498631 0.384724 -0.899217 -1.415683 -0.987080 0.571377 -8.769276 -3.010356 -4.427404 -0.000000 -0.000000 -0.000000 1.215687 -12.231237 -5.480972 -5.767879 -30.089592 -56.279116 0.000026 -49.668193 0.000033 27.170884 -0.603754 40.995960 6.610624 1.798232 20.801498 2.716392 20.172590 -24.389149 -5.537244 29.849528 5.070887 -0.000000 -0.000003 0.000000 -0.236775 2.795510 -26.913356 0.396824 2.121281 -21.189310 0.083131 0.984462 -9.653141 0.000002 0.000002 -0.000000 1.300473 7.338620 -16.511385 0.329899 1.939952 -19.300790 0.233123 1.637769 -16.201253 -0.000002 -0.000001 -0.000001 1.797054 9.807911 -14.182020 0.205949 1.541217 -15.221666 0.265316 1.744716 -17.292068 0.000004 0.000000 0.000001 2.130508 11.250494 -13.934008 0.172953 1.414428 -13.942433 0.107157 1.116563 -10.963885 -0.000000 -0.000002 0.000002 2.594564 -4.355309 5.844525 -17.113155 44.137430 70.273808 -0.000015 40.416364 0.000017 36.967760 8.197029 -38.602843 -9.383516 -1.613354 -17.604705 3.557099 -24.337033 34.656844 -6.608378 -37.497295 -11.176183 -0.000003 -0.000002 0.000003 2.957831 1.012835 13.529997 0.472467 -2.045683 26.006732 0.059742 -0.744412 9.177800 0.000002 -0.000001 -0.000000 0.105669 -3.667898 2.525190 0.584991 -2.261676 29.000310 0.020466 -0.436573 5.367139 0.000000 0.000002 -0.000002 0.490597 -7.672253 4.669129 0.096333 -0.943324 11.661116 0.072392 -0.818816 10.104479 0.000002 -0.000001 -0.000002 -11.162328 -10.227921 7.169808 0.029120 -0.520517 6.403072 0.028650 -0.516314 6.351258 0.000001 -0.000001 -0.000000 -80.234642 -9.195105 16.478549 81.855289 -4.250568 -2.376312 8.095218 -4.345821 -8.886483 -1.212849 0.000324 -0.206947 -0.000000 0.000000 -0.000000 -81.750623 11.927527 -15.023215 80.487393 1.805719 1.119638 10.436296 -0.613496 9.515920 -0.191627 0.000014 0.000001 -0.000000 0.000001 0.000000 
0.612939 49.196083 15.348587 -10.306794 -0.324941 1.678668 9.221076 0.356560 -1.332262 7.567684 0.484643 -1.175548 7.566895 0.481086 -1.151568 -1.979083 -0.748562 0.289346 -9.825581 -2.451848 -3.486130 -0.000000 0.000000 0.000000 1.328827 -10.413288 -4.137258 -12.956719 -35.294832 -57.906713 0.000008 -42.589675 0.000023 24.927084 -3.599262 40.903121 6.610615 1.798239 20.801495 2.716391 20.172568 -24.389156 -5.537254 29.849528 5.070884 -0.000000 0.000001 -0.000001 -0.236786 2.795472 -26.913379 0.396829 2.121289 -21.189291 0.083134 0.984450 -9.653123 0.000000 -0.000001 0.000001 1.300468 7.338599 -16.511395 0.329891 1.939933 -19.300791 0.233123 1.637763 -16.201253 0.000001 0.000003 -0.000005 1.797040 9.807887 -14.182031 0.205947 1.541208 -15.221669 0.265315 1.744717 -17.292062 -0.000001 0.000000 0.000000 2.193451 11.453797 -13.960296 0.177134 1.431177 -14.110954 0.107160 1.116558 -10.963894 0.000001 0.000001 -0.000002 2.267996 -4.479755 4.196481 -25.955798 47.551999 74.772437 -0.000014 32.800966 0.000019 33.546546 10.546709 -39.910865 -9.383515 -1.613345 -17.604705 3.557100 -24.337033 34.656814 -6.608388 -37.497291 -11.176162 -0.000001 -0.000003 0.000005 2.957824 1.012851 13.530005 0.472456 -2.045697 26.006744 0.059750 -0.744420 9.177794 0.000001 0.000001 -0.000000 0.105659 -3.667886 2.525199 0.584989 -2.261688 29.000324 0.020471 -0.436566 5.367127 0.000000 0.000002 0.000002 0.519365 -7.694477 4.974261 0.087437 -0.899180 11.108213 0.072389 -0.818793 10.104485 0.000004 0.000000 0.000000 -11.162324 -10.227909 7.169809 0.029112 -0.520507 6.403080 0.028656 -0.516318 6.351257 -0.000000 0.000001 -0.000002 -77.162341 -7.999509 15.361225 82.946432 -6.130151 -1.883440 8.002713 -3.686049 -8.177627 -1.881106 0.001639 -0.462674 -0.000000 -0.000000 0.000000 -78.442475 11.352542 -15.335672 80.444110 2.319858 1.032622 10.708177 -0.665846 8.760133 -0.443841 0.000005 0.000003 -0.000000 0.000000 -0.000000 
